<?xml version="1.0" encoding="UTF-8" standalone="no"?>
<!-- Created with Inkscape (http://www.inkscape.org/) -->

<svg
   width="210mm"
   height="297mm"
   viewBox="0 0 210 297"
   version="1.1"
   id="svg1"
   inkscape:version="1.4 (e7c3feb1, 2024-10-09)"
   sodipodi:docname="drawing.svg"
   xmlns:inkscape="http://www.inkscape.org/namespaces/inkscape"
   xmlns:sodipodi="http://sodipodi.sourceforge.net/DTD/sodipodi-0.dtd"
   xmlns="http://www.w3.org/2000/svg"
   xmlns:svg="http://www.w3.org/2000/svg">
  <sodipodi:namedview
     id="namedview1"
     pagecolor="#505050"
     bordercolor="#eeeeee"
     borderopacity="1"
     inkscape:showpageshadow="0"
     inkscape:pageopacity="0"
     inkscape:pagecheckerboard="0"
     inkscape:deskcolor="#505050"
     inkscape:document-units="mm"
     inkscape:zoom="0.77682379"
     inkscape:cx="211.11609"
     inkscape:cy="393.91172"
     inkscape:window-width="1920"
     inkscape:window-height="1021"
     inkscape:window-x="0"
     inkscape:window-y="31"
     inkscape:window-maximized="0"
     inkscape:current-layer="layer1" />
  <defs
     id="defs1" />
  <g
     inkscape:label="Layer 1"
     inkscape:groupmode="layer"
     id="layer1">
    <rect
       style="fill:#ffffff;fill-opacity:1;fill-rule:evenodd;stroke:none;stroke-width:0.96133;stroke-miterlimit:3.6;stroke-opacity:1"
       id="rect2"
       width="105.83334"
       height="105.83334"
       x="41.644505"
       y="34.969524"
       inkscape:export-filename="Organization_Logo.png"
       inkscape:export-xdpi="143.99998"
       inkscape:export-ydpi="143.99998" />
    <g
       id="g2"
       transform="translate(1.6386918,0.46476214)">
      <path
         id="rect1"
         style="fill:#b05a5a;fill-opacity:1;fill-rule:evenodd;stroke:none;stroke-width:0.885;stroke-miterlimit:3.6;stroke-opacity:1"
         d="m 61.875201,77.373985 -8.068072,20.094898 h 70.162641 l 8.06807,-20.094898 z"
         sodipodi:nodetypes="ccccc" />
      <path
         d="m 67.176572,91.372551 v -7.90223 h 2.946403 c 0.632178,0 1.15523,0.105363 1.569157,0.316089 0.413926,0.210726 0.722489,0.500474 0.92569,0.869245 0.210726,0.368771 0.316089,0.78646 0.316089,1.253068 0,0.421453 -0.1016,0.816564 -0.304801,1.185335 -0.195674,0.368771 -0.500474,0.666045 -0.9144,0.891823 -0.413927,0.225778 -0.944505,0.338667 -1.591735,0.338667 h -1.478846 v 3.048003 z m 1.467557,-4.233338 h 1.388534 c 0.496712,0 0.854194,-0.109126 1.072446,-0.327378 0.225778,-0.225778 0.338667,-0.526815 0.338667,-0.903112 0,-0.391349 -0.112889,-0.696149 -0.338667,-0.914401 -0.218252,-0.218252 -0.575734,-0.327378 -1.072446,-0.327378 h -1.388534 z m 6.570673,4.233338 v -7.90223 h 3.307648 c 0.639705,0 1.16652,0.109126 1.580446,0.327378 0.413927,0.210726 0.72249,0.500474 0.92569,0.869245 0.2032,0.361245 0.3048,0.775171 0.3048,1.241779 0,0.368771 -0.08279,0.707438 -0.248355,1.016001 -0.158045,0.308563 -0.38006,0.571971 -0.666045,0.790223 0.301037,0.195675 0.530578,0.451556 0.688622,0.767645 0.158045,0.308563 0.244593,0.666045 0.259645,1.072446 l 0.09031,1.817513 h -1.43369 l -0.124178,-1.794935 c -0.01505,-0.285985 -0.06773,-0.519289 -0.158044,-0.699912 -0.09031,-0.188149 -0.233304,-0.323615 -0.428979,-0.4064 -0.188148,-0.09031 -0.451556,-0.135467 -0.790223,-0.135467 h -1.84009 v 3.036714 z m 1.467558,-4.222049 h 1.749779 c 0.489186,0 0.846668,-0.112889 1.072446,-0.338667 0.225778,-0.225778 0.338667,-0.526815 0.338667,-0.903112 0,-0.391349 -0.112889,-0.696149 -0.338667,-0.914401 C 79.286332,84.77607 78.92885,84.666944 78.432139,84.666944 H 76.68236 Z m 7.15768,4.222049 v -7.90223 h 1.467557 v 7.90223 z m 4.030655,0 v -7.90223 h 1.467557 l 3.691471,5.531561 v -5.531561 h 1.467557 v 7.90223 h -1.467557 l -3.691471,-5.520272 v 5.520272 z m 11.187825,0 v -6.716896 h -2.314224 v -1.185334 h 6.084714 v 1.185334 h -2.30293 v 6.716896 z m 8.32044,0 v -2.799647 l -2.67546,-5.102583 h 1.67075 l 1.75873,3.602417 -0.21215,0.439009 1.95298,-4.041426 h 1.64818 l -2.67547,5.102583 v 2.799647 z m 6.32232,0 v -7.90223 h 1.46755 v 6.750762 h 3.49956 v 1.151468 z"
         id="text1"
         style="font-weight:bold;font-size:11.2889px;font-family:'Host Grotesk';-inkscape-font-specification:'Host Grotesk Bold';text-align:center;letter-spacing:1.38906px;text-anchor:middle;fill:#ffffff;fill-opacity:1;fill-rule:evenodd;stroke-width:0.885;stroke-miterlimit:3.6"
         aria-label="PRINTYL"
         sodipodi:nodetypes="ccsscscssccccssscsccccsccscccccccccsccccssscsccccccccccccccccccccccccccccccccccccccccccccc" />
    </g>
  </g>
</svg>
